<svg xmlns="http://www.w3.org/2000/svg" xmlns:xlink="http://www.w3.org/1999/xlink"><defs>
<clipPath id="clip0_109_1783">
<rect width="24" height="24" fill="white"/>
</clipPath>

<clipPath id="clip0_109_1789">
<rect width="24" height="24" fill="white"/>
</clipPath>
</defs><symbol id="arrow-left" viewBox="0 0 28 28">
<path d="M22.75 14L5.25 14M5.25 14L13.125 21.875M5.25 14L13.125 6.125" stroke-width="2" stroke-linecap="round" stroke-linejoin="round"/>
</symbol><symbol id="arrow-right" viewBox="0 0 30 30">
<path d="M5.625 15L24.375 15M24.375 15L15.9375 6.5625M24.375 15L15.9375 23.4375" stroke-width="2" stroke-linecap="round" stroke-linejoin="round"/>
</symbol><symbol id="facebook" viewBox="0 0 24 24">
<g clip-path="url(#clip0_109_1783)">
<path d="M24 12C24 5.37258 18.6274 0 12 0C5.37258 0 0 5.37258 0 12C0 17.9895 4.3882 22.954 10.125 23.8542V15.4687H7.07812V12H10.125V9.35625C10.125 6.34875 11.9166 4.6875 14.6576 4.6875C15.9701 4.6875 17.3438 4.92187 17.3438 4.92187V7.875H15.8306C14.34 7.875 13.875 8.80008 13.875 9.75V12H17.2031L16.6711 15.4687H13.875V23.8542C19.6118 22.954 24 17.9895 24 12Z"/>
</g>

</symbol><symbol id="linkedin" viewBox="0 0 24 24">
<g clip-path="url(#clip0_109_1789)">
<path d="M22.2234 0H1.77187C0.792187 0 0 0.773438 0 1.72969V22.2656C0 23.2219 0.792187 24 1.77187 24H22.2234C23.2031 24 24 23.2219 24 22.2703V1.72969C24 0.773438 23.2031 0 22.2234 0ZM7.12031 20.4516H3.55781V8.99531H7.12031V20.4516ZM5.33906 7.43438C4.19531 7.43438 3.27188 6.51094 3.27188 5.37187C3.27188 4.23281 4.19531 3.30937 5.33906 3.30937C6.47813 3.30937 7.40156 4.23281 7.40156 5.37187C7.40156 6.50625 6.47813 7.43438 5.33906 7.43438ZM20.4516 20.4516H16.8937V14.8828C16.8937 13.5562 16.8703 11.8453 15.0422 11.8453C13.1906 11.8453 12.9094 13.2937 12.9094 14.7891V20.4516H9.35625V8.99531H12.7687V10.5609H12.8156C13.2891 9.66094 14.4516 8.70938 16.1813 8.70938C19.7859 8.70938 20.4516 11.0813 20.4516 14.1656V20.4516Z"/>
</g>

</symbol><symbol id="notifications" viewBox="0 0 34 34">
<path d="M21.0472 24.1991C23.7312 23.8807 26.3193 23.2497 28.7741 22.3435C26.7386 20.0841 25.4997 17.093 25.4997 13.8125V12.8197C25.4999 12.7965 25.5 12.7732 25.5 12.75C25.5 8.05558 21.6944 4.25 17 4.25C12.3056 4.25 8.5 8.05558 8.5 12.75L8.49972 13.8125C8.49972 17.093 7.2608 20.0841 5.22534 22.3435C7.68032 23.2498 10.2686 23.8808 12.9528 24.1992M21.0472 24.1991C19.72 24.3565 18.3693 24.4375 16.9997 24.4375C15.6303 24.4375 14.2798 24.3565 12.9528 24.1992M21.0472 24.1991C21.1789 24.6091 21.25 25.0462 21.25 25.5C21.25 27.8472 19.3472 29.75 17 29.75C14.6528 29.75 12.75 27.8472 12.75 25.5C12.75 25.0463 12.8211 24.6091 12.9528 24.1992" stroke-width="2" stroke-linecap="round" stroke-linejoin="round"/>
</symbol><symbol id="play" viewBox="0 0 28 28">
<path fill-rule="evenodd" clip-rule="evenodd" d="M5.25 6.59479C5.25 4.93097 7.03383 3.87624 8.4917 4.67807L21.9557 12.0833C23.4668 12.9144 23.4668 15.0856 21.9557 15.9167L8.4917 23.3219C7.03383 24.1238 5.25 23.069 5.25 21.4052V6.59479Z"/>
</symbol><symbol id="search" viewBox="0 0 34 34">
<path d="M29.75 29.75L22.388 22.388M22.388 22.388C24.3108 20.4653 25.5 17.809 25.5 14.875C25.5 9.00697 20.743 4.25 14.875 4.25C9.00697 4.25 4.25 9.00697 4.25 14.875C4.25 20.743 9.00697 25.5 14.875 25.5C17.809 25.5 20.4653 24.3108 22.388 22.388Z" stroke-width="2" stroke-linecap="round" stroke-linejoin="round"/>
</symbol><symbol id="twitter" viewBox="0 0 24 24">
<path d="M7.55016 21.75C16.6045 21.75 21.5583 14.2467 21.5583 7.74186C21.5583 7.53092 21.5536 7.3153 21.5442 7.10436C22.5079 6.40746 23.3395 5.54425 24 4.5553C23.1025 4.9546 22.1496 5.21538 21.1739 5.32874C22.2013 4.71291 22.9705 3.74547 23.3391 2.60577C22.3726 3.17856 21.3156 3.58261 20.2134 3.80061C19.4708 3.01156 18.489 2.48912 17.4197 2.31405C16.3504 2.13899 15.2532 2.32105 14.2977 2.8321C13.3423 3.34314 12.5818 4.15471 12.1338 5.14131C11.6859 6.12792 11.5754 7.23462 11.8195 8.2903C9.86249 8.19209 7.94794 7.6837 6.19998 6.7981C4.45203 5.91249 2.90969 4.66944 1.67297 3.14952C1.0444 4.23324 0.852057 5.51565 1.13503 6.73609C1.418 7.95654 2.15506 9.02345 3.19641 9.71999C2.41463 9.69517 1.64998 9.48468 0.965625 9.10592V9.16686C0.964925 10.3041 1.3581 11.4066 2.07831 12.2868C2.79852 13.167 3.80132 13.7706 4.91625 13.995C4.19206 14.1931 3.43198 14.222 2.69484 14.0794C3.00945 15.0574 3.62157 15.9129 4.44577 16.5263C5.26997 17.1398 6.26512 17.4806 7.29234 17.5012C5.54842 18.8711 3.39417 19.6141 1.17656 19.6106C0.783287 19.61 0.390399 19.5859 0 19.5384C2.25286 20.9837 4.87353 21.7514 7.55016 21.75Z"/>
</symbol></svg>